<mxfile host="65bd71144e">
    <diagram id="nC6nw8Q5eUVLWcdzHIn0" name="PÃ¡gina-1">
        <mxGraphModel dx="1093" dy="585" grid="1" gridSize="10" guides="1" tooltips="1" connect="1" arrows="1" fold="1" page="1" pageScale="1" pageWidth="827" pageHeight="1169" background="#121212" math="0" shadow="0">
            <root>
                <mxCell id="0"/>
                <mxCell id="1" parent="0"/>
                <mxCell id="16" value="User" style="shape=table;startSize=30;container=1;collapsible=1;childLayout=tableLayout;fixedRows=1;rowLines=0;fontStyle=1;align=center;resizeLast=1;fillColor=#330066;fontColor=default;strokeColor=#432D57;strokeWidth=4;rounded=1;shadow=0;sketch=0;gradientColor=none;fontSize=14;labelBackgroundColor=none;" vertex="1" parent="1">
                    <mxGeometry x="20" y="20" width="280" height="330" as="geometry">
                        <mxRectangle x="20" y="20" width="60" height="30" as="alternateBounds"/>
                    </mxGeometry>
                </mxCell>
                <mxCell id="17" value="" style="shape=partialRectangle;collapsible=0;dropTarget=0;pointerEvents=0;fillColor=#330066;top=0;left=0;bottom=1;right=0;points=[[0,0.5],[1,0.5]];portConstraint=eastwest;fontSize=14;strokeColor=#432D57;startSize=30;fontStyle=1;strokeWidth=4;rounded=1;shadow=0;sketch=0;gradientColor=none;labelBackgroundColor=none;" vertex="1" parent="16">
                    <mxGeometry y="30" width="280" height="30" as="geometry"/>
                </mxCell>
                <mxCell id="18" value="PK" style="shape=partialRectangle;connectable=0;fillColor=#330066;top=0;left=0;bottom=0;right=0;fontStyle=1;overflow=hidden;fontSize=14;strokeColor=#432D57;startSize=30;strokeWidth=4;rounded=1;shadow=0;sketch=0;gradientColor=none;labelBackgroundColor=none;" vertex="1" parent="17">
                    <mxGeometry width="30" height="30" as="geometry">
                        <mxRectangle width="30" height="30" as="alternateBounds"/>
                    </mxGeometry>
                </mxCell>
                <mxCell id="19" value="id" style="shape=partialRectangle;connectable=0;fillColor=#333333;top=0;left=0;bottom=0;right=0;align=left;spacingLeft=6;fontStyle=7;overflow=hidden;fontSize=17;strokeColor=#314354;startSize=30;strokeWidth=5;rounded=1;shadow=0;sketch=0;gradientColor=none;labelBackgroundColor=none;fontColor=#ffffff;" vertex="1" parent="17">
                    <mxGeometry x="30" width="250" height="30" as="geometry">
                        <mxRectangle width="250" height="30" as="alternateBounds"/>
                    </mxGeometry>
                </mxCell>
                <mxCell id="20" value="" style="shape=partialRectangle;collapsible=0;dropTarget=0;pointerEvents=0;fillColor=#333333;top=0;left=0;bottom=0;right=0;points=[[0,0.5],[1,0.5]];portConstraint=eastwest;fontSize=14;strokeColor=#314354;startSize=30;fontStyle=1;strokeWidth=5;rounded=1;shadow=0;sketch=0;gradientColor=none;labelBackgroundColor=none;fontColor=#ffffff;" vertex="1" parent="16">
                    <mxGeometry y="60" width="280" height="30" as="geometry"/>
                </mxCell>
                <mxCell id="21" value="" style="shape=partialRectangle;connectable=0;fillColor=#333333;top=0;left=0;bottom=0;right=0;editable=1;overflow=hidden;fontSize=14;strokeColor=#314354;startSize=30;fontStyle=1;strokeWidth=5;rounded=1;shadow=0;sketch=0;gradientColor=none;labelBackgroundColor=none;fontColor=#ffffff;" vertex="1" parent="20">
                    <mxGeometry width="30" height="30" as="geometry">
                        <mxRectangle width="30" height="30" as="alternateBounds"/>
                    </mxGeometry>
                </mxCell>
                <mxCell id="22" value="name" style="shape=partialRectangle;connectable=0;fillColor=#333333;top=0;left=0;bottom=0;right=0;align=left;spacingLeft=6;overflow=hidden;labelBackgroundColor=none;fontSize=17;strokeColor=#314354;startSize=30;fontStyle=1;strokeWidth=5;rounded=1;shadow=0;sketch=0;gradientColor=none;fontColor=#ffffff;" vertex="1" parent="20">
                    <mxGeometry x="30" width="250" height="30" as="geometry">
                        <mxRectangle width="250" height="30" as="alternateBounds"/>
                    </mxGeometry>
                </mxCell>
                <mxCell id="23" value="" style="shape=partialRectangle;collapsible=0;dropTarget=0;pointerEvents=0;fillColor=#333333;top=0;left=0;bottom=0;right=0;points=[[0,0.5],[1,0.5]];portConstraint=eastwest;fontSize=14;strokeColor=#314354;startSize=30;fontStyle=1;strokeWidth=5;rounded=1;shadow=0;sketch=0;gradientColor=none;labelBackgroundColor=none;fontColor=#ffffff;" vertex="1" parent="16">
                    <mxGeometry y="90" width="280" height="30" as="geometry"/>
                </mxCell>
                <mxCell id="24" value="" style="shape=partialRectangle;connectable=0;fillColor=#333333;top=0;left=0;bottom=0;right=0;editable=1;overflow=hidden;fontSize=14;strokeColor=#314354;startSize=30;fontStyle=1;strokeWidth=5;rounded=1;shadow=0;sketch=0;gradientColor=none;labelBackgroundColor=none;fontColor=#ffffff;" vertex="1" parent="23">
                    <mxGeometry width="30" height="30" as="geometry">
                        <mxRectangle width="30" height="30" as="alternateBounds"/>
                    </mxGeometry>
                </mxCell>
                <mxCell id="25" value="fullName" style="shape=partialRectangle;connectable=0;fillColor=#333333;top=0;left=0;bottom=0;right=0;align=left;spacingLeft=6;overflow=hidden;labelBackgroundColor=none;fontSize=17;strokeColor=#314354;startSize=30;fontStyle=1;strokeWidth=5;rounded=1;shadow=0;sketch=0;gradientColor=none;fontColor=#ffffff;" vertex="1" parent="23">
                    <mxGeometry x="30" width="250" height="30" as="geometry">
                        <mxRectangle width="250" height="30" as="alternateBounds"/>
                    </mxGeometry>
                </mxCell>
                <mxCell id="26" value="" style="shape=partialRectangle;collapsible=0;dropTarget=0;pointerEvents=0;fillColor=#333333;top=0;left=0;bottom=0;right=0;points=[[0,0.5],[1,0.5]];portConstraint=eastwest;fontSize=14;strokeColor=#314354;startSize=30;fontStyle=1;strokeWidth=5;rounded=1;shadow=0;sketch=0;gradientColor=none;labelBackgroundColor=none;fontColor=#ffffff;" vertex="1" parent="16">
                    <mxGeometry y="120" width="280" height="30" as="geometry"/>
                </mxCell>
                <mxCell id="27" value="" style="shape=partialRectangle;connectable=0;fillColor=#333333;top=0;left=0;bottom=0;right=0;editable=1;overflow=hidden;fontSize=14;strokeColor=#314354;startSize=30;fontStyle=1;strokeWidth=5;rounded=1;shadow=0;sketch=0;gradientColor=none;labelBackgroundColor=none;fontColor=#ffffff;" vertex="1" parent="26">
                    <mxGeometry width="30" height="30" as="geometry">
                        <mxRectangle width="30" height="30" as="alternateBounds"/>
                    </mxGeometry>
                </mxCell>
                <mxCell id="28" value="nickName" style="shape=partialRectangle;connectable=0;fillColor=#333333;top=0;left=0;bottom=0;right=0;align=left;spacingLeft=6;overflow=hidden;labelBackgroundColor=none;fontSize=17;strokeColor=#314354;startSize=30;fontStyle=1;strokeWidth=5;rounded=1;shadow=0;sketch=0;gradientColor=none;fontColor=#ffffff;" vertex="1" parent="26">
                    <mxGeometry x="30" width="250" height="30" as="geometry">
                        <mxRectangle width="250" height="30" as="alternateBounds"/>
                    </mxGeometry>
                </mxCell>
                <mxCell id="29" value="" style="shape=partialRectangle;collapsible=0;dropTarget=0;pointerEvents=0;fillColor=#333333;top=0;left=0;bottom=0;right=0;points=[[0,0.5],[1,0.5]];portConstraint=eastwest;fontSize=14;strokeColor=#314354;startSize=30;fontStyle=1;strokeWidth=5;rounded=1;shadow=0;sketch=0;gradientColor=none;labelBackgroundColor=none;fontColor=#ffffff;" vertex="1" parent="16">
                    <mxGeometry y="150" width="280" height="30" as="geometry"/>
                </mxCell>
                <mxCell id="30" value="" style="shape=partialRectangle;connectable=0;fillColor=#333333;top=0;left=0;bottom=0;right=0;editable=1;overflow=hidden;fontSize=14;strokeColor=#314354;startSize=30;fontStyle=1;strokeWidth=5;rounded=1;shadow=0;sketch=0;gradientColor=none;labelBackgroundColor=none;fontColor=#ffffff;" vertex="1" parent="29">
                    <mxGeometry width="30" height="30" as="geometry">
                        <mxRectangle width="30" height="30" as="alternateBounds"/>
                    </mxGeometry>
                </mxCell>
                <mxCell id="31" value="email" style="shape=partialRectangle;connectable=0;fillColor=#333333;top=0;left=0;bottom=0;right=0;align=left;spacingLeft=6;overflow=hidden;labelBackgroundColor=none;fontSize=17;strokeColor=#314354;startSize=30;fontStyle=1;strokeWidth=5;rounded=1;shadow=0;sketch=0;gradientColor=none;fontColor=#ffffff;" vertex="1" parent="29">
                    <mxGeometry x="30" width="250" height="30" as="geometry">
                        <mxRectangle width="250" height="30" as="alternateBounds"/>
                    </mxGeometry>
                </mxCell>
                <mxCell id="32" value="" style="shape=partialRectangle;collapsible=0;dropTarget=0;pointerEvents=0;fillColor=#333333;top=0;left=0;bottom=0;right=0;points=[[0,0.5],[1,0.5]];portConstraint=eastwest;fontSize=14;strokeColor=#314354;startSize=30;fontStyle=1;strokeWidth=5;rounded=1;shadow=0;sketch=0;gradientColor=none;labelBackgroundColor=none;fontColor=#ffffff;" vertex="1" parent="16">
                    <mxGeometry y="180" width="280" height="30" as="geometry"/>
                </mxCell>
                <mxCell id="33" value="" style="shape=partialRectangle;connectable=0;fillColor=#333333;top=0;left=0;bottom=0;right=0;editable=1;overflow=hidden;fontSize=14;strokeColor=#314354;startSize=30;fontStyle=1;strokeWidth=5;rounded=1;shadow=0;sketch=0;gradientColor=none;labelBackgroundColor=none;fontColor=#ffffff;" vertex="1" parent="32">
                    <mxGeometry width="30" height="30" as="geometry">
                        <mxRectangle width="30" height="30" as="alternateBounds"/>
                    </mxGeometry>
                </mxCell>
                <mxCell id="34" value="password" style="shape=partialRectangle;connectable=0;fillColor=#333333;top=0;left=0;bottom=0;right=0;align=left;spacingLeft=6;overflow=hidden;labelBackgroundColor=none;fontSize=17;strokeColor=#314354;startSize=30;fontStyle=1;strokeWidth=5;rounded=1;shadow=0;sketch=0;gradientColor=none;fontColor=#ffffff;" vertex="1" parent="32">
                    <mxGeometry x="30" width="250" height="30" as="geometry">
                        <mxRectangle width="250" height="30" as="alternateBounds"/>
                    </mxGeometry>
                </mxCell>
                <mxCell id="35" value="" style="shape=partialRectangle;collapsible=0;dropTarget=0;pointerEvents=0;fillColor=#333333;top=0;left=0;bottom=0;right=0;points=[[0,0.5],[1,0.5]];portConstraint=eastwest;fontSize=14;strokeColor=#314354;startSize=30;fontStyle=1;strokeWidth=5;rounded=1;shadow=0;sketch=0;gradientColor=none;labelBackgroundColor=none;fontColor=#ffffff;" vertex="1" parent="16">
                    <mxGeometry y="210" width="280" height="30" as="geometry"/>
                </mxCell>
                <mxCell id="36" value="" style="shape=partialRectangle;connectable=0;fillColor=#333333;top=0;left=0;bottom=0;right=0;editable=1;overflow=hidden;fontSize=14;strokeColor=#314354;startSize=30;fontStyle=1;strokeWidth=5;rounded=1;shadow=0;sketch=0;gradientColor=none;labelBackgroundColor=none;fontColor=#ffffff;" vertex="1" parent="35">
                    <mxGeometry width="30" height="30" as="geometry">
                        <mxRectangle width="30" height="30" as="alternateBounds"/>
                    </mxGeometry>
                </mxCell>
                <mxCell id="37" value="imgProfile" style="shape=partialRectangle;connectable=0;fillColor=#333333;top=0;left=0;bottom=0;right=0;align=left;spacingLeft=6;overflow=hidden;labelBackgroundColor=none;fontSize=17;strokeColor=#314354;startSize=30;fontStyle=1;strokeWidth=5;rounded=1;shadow=0;sketch=0;gradientColor=none;fontColor=#ffffff;" vertex="1" parent="35">
                    <mxGeometry x="30" width="250" height="30" as="geometry">
                        <mxRectangle width="250" height="30" as="alternateBounds"/>
                    </mxGeometry>
                </mxCell>
                <mxCell id="38" value="" style="shape=partialRectangle;collapsible=0;dropTarget=0;pointerEvents=0;fillColor=#333333;top=0;left=0;bottom=0;right=0;points=[[0,0.5],[1,0.5]];portConstraint=eastwest;fontSize=14;strokeColor=#314354;startSize=30;fontStyle=1;strokeWidth=5;rounded=1;shadow=0;sketch=0;gradientColor=none;labelBackgroundColor=none;fontColor=#ffffff;" vertex="1" parent="16">
                    <mxGeometry y="240" width="280" height="30" as="geometry"/>
                </mxCell>
                <mxCell id="39" value="" style="shape=partialRectangle;connectable=0;fillColor=#333333;top=0;left=0;bottom=0;right=0;editable=1;overflow=hidden;fontSize=14;strokeColor=#314354;startSize=30;fontStyle=1;strokeWidth=5;rounded=1;shadow=0;sketch=0;gradientColor=none;labelBackgroundColor=none;fontColor=#ffffff;" vertex="1" parent="38">
                    <mxGeometry width="30" height="30" as="geometry">
                        <mxRectangle width="30" height="30" as="alternateBounds"/>
                    </mxGeometry>
                </mxCell>
                <mxCell id="40" value="rules" style="shape=partialRectangle;connectable=0;fillColor=#333333;top=0;left=0;bottom=0;right=0;align=left;spacingLeft=6;overflow=hidden;labelBackgroundColor=none;fontSize=17;strokeColor=#314354;startSize=30;fontStyle=1;strokeWidth=5;rounded=1;shadow=0;sketch=0;gradientColor=none;fontColor=#ffffff;" vertex="1" parent="38">
                    <mxGeometry x="30" width="250" height="30" as="geometry">
                        <mxRectangle width="250" height="30" as="alternateBounds"/>
                    </mxGeometry>
                </mxCell>
                <mxCell id="41" value="" style="shape=partialRectangle;collapsible=0;dropTarget=0;pointerEvents=0;fillColor=#333333;top=0;left=0;bottom=0;right=0;points=[[0,0.5],[1,0.5]];portConstraint=eastwest;fontSize=14;strokeColor=#314354;startSize=30;fontStyle=1;strokeWidth=5;rounded=1;shadow=0;sketch=0;gradientColor=none;labelBackgroundColor=none;fontColor=#ffffff;" vertex="1" parent="16">
                    <mxGeometry y="270" width="280" height="30" as="geometry"/>
                </mxCell>
                <mxCell id="42" value="" style="shape=partialRectangle;connectable=0;fillColor=#333333;top=0;left=0;bottom=0;right=0;editable=1;overflow=hidden;fontSize=14;strokeColor=#314354;startSize=30;fontStyle=1;strokeWidth=5;rounded=1;shadow=0;sketch=0;gradientColor=none;labelBackgroundColor=none;fontColor=#ffffff;" vertex="1" parent="41">
                    <mxGeometry width="30" height="30" as="geometry">
                        <mxRectangle width="30" height="30" as="alternateBounds"/>
                    </mxGeometry>
                </mxCell>
                <mxCell id="43" value="createAt" style="shape=partialRectangle;connectable=0;fillColor=#333333;top=0;left=0;bottom=0;right=0;align=left;spacingLeft=6;overflow=hidden;labelBackgroundColor=none;fontSize=17;strokeColor=#314354;startSize=30;fontStyle=1;strokeWidth=5;rounded=1;shadow=0;sketch=0;gradientColor=none;fontColor=#ffffff;" vertex="1" parent="41">
                    <mxGeometry x="30" width="250" height="30" as="geometry">
                        <mxRectangle width="250" height="30" as="alternateBounds"/>
                    </mxGeometry>
                </mxCell>
                <mxCell id="44" value="" style="shape=partialRectangle;collapsible=0;dropTarget=0;pointerEvents=0;fillColor=#333333;top=0;left=0;bottom=0;right=0;points=[[0,0.5],[1,0.5]];portConstraint=eastwest;fontSize=14;strokeColor=#314354;startSize=30;fontStyle=1;strokeWidth=5;rounded=1;shadow=0;sketch=0;gradientColor=none;labelBackgroundColor=none;fontColor=#ffffff;" vertex="1" parent="16">
                    <mxGeometry y="300" width="280" height="30" as="geometry"/>
                </mxCell>
                <mxCell id="45" value="" style="shape=partialRectangle;connectable=0;fillColor=#333333;top=0;left=0;bottom=0;right=0;editable=1;overflow=hidden;fontSize=14;strokeColor=#314354;startSize=30;fontStyle=1;strokeWidth=5;rounded=1;shadow=0;sketch=0;gradientColor=none;labelBackgroundColor=none;fontColor=#ffffff;" vertex="1" parent="44">
                    <mxGeometry width="30" height="30" as="geometry">
                        <mxRectangle width="30" height="30" as="alternateBounds"/>
                    </mxGeometry>
                </mxCell>
                <mxCell id="46" value="updateAt" style="shape=partialRectangle;connectable=0;fillColor=#333333;top=0;left=0;bottom=0;right=0;align=left;spacingLeft=6;overflow=hidden;labelBackgroundColor=none;fontSize=17;strokeColor=#314354;startSize=30;fontStyle=1;strokeWidth=5;rounded=1;shadow=0;sketch=0;gradientColor=none;fontColor=#ffffff;" vertex="1" parent="44">
                    <mxGeometry x="30" width="250" height="30" as="geometry">
                        <mxRectangle width="250" height="30" as="alternateBounds"/>
                    </mxGeometry>
                </mxCell>
                <mxCell id="47" value="raffles" style="shape=table;startSize=30;container=1;collapsible=1;childLayout=tableLayout;fixedRows=1;rowLines=0;fontStyle=1;align=center;resizeLast=1;fillColor=#330066;fontColor=default;strokeColor=#432D57;strokeWidth=4;rounded=1;shadow=0;sketch=0;gradientColor=none;fontSize=14;labelBackgroundColor=none;" vertex="1" parent="1">
                    <mxGeometry x="530" y="20" width="280" height="240" as="geometry">
                        <mxRectangle x="20" y="20" width="60" height="30" as="alternateBounds"/>
                    </mxGeometry>
                </mxCell>
                <mxCell id="48" value="" style="shape=partialRectangle;collapsible=0;dropTarget=0;pointerEvents=0;fillColor=#333333;top=0;left=0;bottom=1;right=0;points=[[0,0.5],[1,0.5]];portConstraint=eastwest;fontStyle=1;fontSize=14;" vertex="1" parent="47">
                    <mxGeometry y="30" width="280" height="30" as="geometry"/>
                </mxCell>
                <mxCell id="49" value="PK" style="shape=partialRectangle;connectable=0;fillColor=#330066;top=0;left=0;bottom=0;right=0;fontStyle=1;overflow=hidden;" vertex="1" parent="48">
                    <mxGeometry width="30" height="30" as="geometry">
                        <mxRectangle width="30" height="30" as="alternateBounds"/>
                    </mxGeometry>
                </mxCell>
                <mxCell id="50" value="id" style="shape=partialRectangle;connectable=0;fillColor=none;top=0;left=0;bottom=0;right=0;align=left;spacingLeft=6;fontStyle=7;overflow=hidden;fontSize=17;" vertex="1" parent="48">
                    <mxGeometry x="30" width="250" height="30" as="geometry">
                        <mxRectangle width="250" height="30" as="alternateBounds"/>
                    </mxGeometry>
                </mxCell>
                <mxCell id="51" value="" style="shape=partialRectangle;collapsible=0;dropTarget=0;pointerEvents=0;fillColor=#333333;top=0;left=0;bottom=0;right=0;points=[[0,0.5],[1,0.5]];portConstraint=eastwest;strokeWidth=5;fontColor=#ffffff;strokeColor=#314354;fontStyle=1;fontSize=14;" vertex="1" parent="47">
                    <mxGeometry y="60" width="280" height="30" as="geometry"/>
                </mxCell>
                <mxCell id="52" value="" style="shape=partialRectangle;connectable=0;fillColor=#333333;top=0;left=0;bottom=0;right=0;editable=1;overflow=hidden;fontColor=#ffffff;strokeColor=#314354;" vertex="1" parent="51">
                    <mxGeometry width="30" height="30" as="geometry">
                        <mxRectangle width="30" height="30" as="alternateBounds"/>
                    </mxGeometry>
                </mxCell>
                <mxCell id="53" value="raffleName" style="shape=partialRectangle;connectable=0;fillColor=#333333;top=0;left=0;bottom=0;right=0;align=left;spacingLeft=6;overflow=hidden;labelBackgroundColor=#333333;fontColor=#ffffff;strokeColor=#314354;fontStyle=1;fontSize=17;" vertex="1" parent="51">
                    <mxGeometry x="30" width="250" height="30" as="geometry">
                        <mxRectangle width="250" height="30" as="alternateBounds"/>
                    </mxGeometry>
                </mxCell>
                <mxCell id="54" value="" style="shape=partialRectangle;collapsible=0;dropTarget=0;pointerEvents=0;fillColor=#333333;top=0;left=0;bottom=0;right=0;points=[[0,0.5],[1,0.5]];portConstraint=eastwest;strokeWidth=5;fontColor=#ffffff;strokeColor=#314354;fontStyle=1;fontSize=14;" vertex="1" parent="47">
                    <mxGeometry y="90" width="280" height="30" as="geometry"/>
                </mxCell>
                <mxCell id="55" value="" style="shape=partialRectangle;connectable=0;fillColor=#333333;top=0;left=0;bottom=0;right=0;editable=1;overflow=hidden;fontColor=#ffffff;strokeColor=#314354;" vertex="1" parent="54">
                    <mxGeometry width="30" height="30" as="geometry">
                        <mxRectangle width="30" height="30" as="alternateBounds"/>
                    </mxGeometry>
                </mxCell>
                <mxCell id="56" value="award" style="shape=partialRectangle;connectable=0;fillColor=#333333;top=0;left=0;bottom=0;right=0;align=left;spacingLeft=6;overflow=hidden;labelBackgroundColor=#333333;fontColor=#ffffff;strokeColor=#314354;fontStyle=1;fontSize=17;" vertex="1" parent="54">
                    <mxGeometry x="30" width="250" height="30" as="geometry">
                        <mxRectangle width="250" height="30" as="alternateBounds"/>
                    </mxGeometry>
                </mxCell>
                <mxCell id="57" value="" style="shape=partialRectangle;collapsible=0;dropTarget=0;pointerEvents=0;fillColor=#333333;top=0;left=0;bottom=0;right=0;points=[[0,0.5],[1,0.5]];portConstraint=eastwest;strokeWidth=5;fontColor=#ffffff;strokeColor=#314354;fontStyle=1;fontSize=14;" vertex="1" parent="47">
                    <mxGeometry y="120" width="280" height="30" as="geometry"/>
                </mxCell>
                <mxCell id="58" value="" style="shape=partialRectangle;connectable=0;fillColor=#333333;top=0;left=0;bottom=0;right=0;editable=1;overflow=hidden;fontColor=#ffffff;strokeColor=#314354;" vertex="1" parent="57">
                    <mxGeometry width="30" height="30" as="geometry">
                        <mxRectangle width="30" height="30" as="alternateBounds"/>
                    </mxGeometry>
                </mxCell>
                <mxCell id="59" value="price" style="shape=partialRectangle;connectable=0;fillColor=#333333;top=0;left=0;bottom=0;right=0;align=left;spacingLeft=6;overflow=hidden;labelBackgroundColor=#333333;fontColor=#ffffff;strokeColor=#314354;fontStyle=1;fontSize=17;" vertex="1" parent="57">
                    <mxGeometry x="30" width="250" height="30" as="geometry">
                        <mxRectangle width="250" height="30" as="alternateBounds"/>
                    </mxGeometry>
                </mxCell>
                <mxCell id="60" value="" style="shape=partialRectangle;collapsible=0;dropTarget=0;pointerEvents=0;fillColor=#333333;top=0;left=0;bottom=0;right=0;points=[[0,0.5],[1,0.5]];portConstraint=eastwest;strokeWidth=5;fontColor=#ffffff;strokeColor=#314354;fontStyle=1;fontSize=14;" vertex="1" parent="47">
                    <mxGeometry y="150" width="280" height="30" as="geometry"/>
                </mxCell>
                <mxCell id="61" value="" style="shape=partialRectangle;connectable=0;fillColor=#333333;top=0;left=0;bottom=0;right=0;editable=1;overflow=hidden;fontColor=#ffffff;strokeColor=#314354;" vertex="1" parent="60">
                    <mxGeometry width="30" height="30" as="geometry">
                        <mxRectangle width="30" height="30" as="alternateBounds"/>
                    </mxGeometry>
                </mxCell>
                <mxCell id="62" value="imgAward" style="shape=partialRectangle;connectable=0;fillColor=#333333;top=0;left=0;bottom=0;right=0;align=left;spacingLeft=6;overflow=hidden;labelBackgroundColor=#333333;fontColor=#ffffff;strokeColor=#314354;fontStyle=1;fontSize=17;" vertex="1" parent="60">
                    <mxGeometry x="30" width="250" height="30" as="geometry">
                        <mxRectangle width="250" height="30" as="alternateBounds"/>
                    </mxGeometry>
                </mxCell>
                <mxCell id="63" value="" style="shape=partialRectangle;collapsible=0;dropTarget=0;pointerEvents=0;fillColor=#333333;top=0;left=0;bottom=0;right=0;points=[[0,0.5],[1,0.5]];portConstraint=eastwest;strokeWidth=5;fontColor=#ffffff;strokeColor=#314354;fontStyle=1;fontSize=14;" vertex="1" parent="47">
                    <mxGeometry y="180" width="280" height="30" as="geometry"/>
                </mxCell>
                <mxCell id="64" value="" style="shape=partialRectangle;connectable=0;fillColor=#333333;top=0;left=0;bottom=0;right=0;editable=1;overflow=hidden;fontColor=#ffffff;strokeColor=#314354;" vertex="1" parent="63">
                    <mxGeometry width="30" height="30" as="geometry">
                        <mxRectangle width="30" height="30" as="alternateBounds"/>
                    </mxGeometry>
                </mxCell>
                <mxCell id="65" value="createAt" style="shape=partialRectangle;connectable=0;fillColor=#333333;top=0;left=0;bottom=0;right=0;align=left;spacingLeft=6;overflow=hidden;labelBackgroundColor=#333333;fontColor=#ffffff;strokeColor=#314354;fontStyle=1;fontSize=17;" vertex="1" parent="63">
                    <mxGeometry x="30" width="250" height="30" as="geometry">
                        <mxRectangle width="250" height="30" as="alternateBounds"/>
                    </mxGeometry>
                </mxCell>
                <mxCell id="66" value="" style="shape=partialRectangle;collapsible=0;dropTarget=0;pointerEvents=0;fillColor=#333333;top=0;left=0;bottom=0;right=0;points=[[0,0.5],[1,0.5]];portConstraint=eastwest;strokeWidth=5;fontColor=#ffffff;strokeColor=#314354;fontStyle=1;fontSize=14;" vertex="1" parent="47">
                    <mxGeometry y="210" width="280" height="30" as="geometry"/>
                </mxCell>
                <mxCell id="67" value="" style="shape=partialRectangle;connectable=0;fillColor=#333333;top=0;left=0;bottom=0;right=0;editable=1;overflow=hidden;fontColor=#ffffff;strokeColor=#314354;" vertex="1" parent="66">
                    <mxGeometry width="30" height="30" as="geometry">
                        <mxRectangle width="30" height="30" as="alternateBounds"/>
                    </mxGeometry>
                </mxCell>
                <mxCell id="68" value="updateAt" style="shape=partialRectangle;connectable=0;fillColor=#333333;top=0;left=0;bottom=0;right=0;align=left;spacingLeft=6;overflow=hidden;labelBackgroundColor=#333333;fontColor=#ffffff;strokeColor=#314354;fontStyle=1;fontSize=17;" vertex="1" parent="66">
                    <mxGeometry x="30" width="250" height="30" as="geometry">
                        <mxRectangle width="250" height="30" as="alternateBounds"/>
                    </mxGeometry>
                </mxCell>
            </root>
        </mxGraphModel>
    </diagram>
</mxfile>